<?xml version="1.0" encoding="UTF-8"?>
<svg xmlns="http://www.w3.org/2000/svg" viewBox="0 0 1000 600" width="1000" height="600">
  <defs>
    <linearGradient id="grad1" x1="0%" y1="0%" x2="100%" y2="100%">
      <stop offset="0%" style="stop-color:#00ADD8;stop-opacity:1" />
      <stop offset="100%" style="stop-color:#007d9c;stop-opacity:1" />
    </linearGradient>
    <linearGradient id="grad2" x1="0%" y1="0%" x2="100%" y2="100%">
      <stop offset="0%" style="stop-color:#F80000;stop-opacity:1" />
      <stop offset="100%" style="stop-color:#b80000;stop-opacity:1" />
    </linearGradient>
    <filter id="shadow">
      <feDropShadow dx="2" dy="2" stdDeviation="3" flood-opacity="0.3"/>
    </filter>
  </defs>
  
  <!-- Background -->
  <rect width="1000" height="600" fill="#f8f9fa"/>
  
  <!-- Title -->
  <text x="500" y="40" text-anchor="middle" font-size="28" font-weight="bold" fill="#2c3e50">
    Cloud DR Orchestrator Architecture
  </text>
  
  <!-- Application Layer -->
  <g filter="url(#shadow)">
    <rect x="50" y="100" width="200" height="380" rx="10" fill="#fff" stroke="#dee2e6" stroke-width="2"/>
    <rect x="50" y="100" width="200" height="40" rx="10" fill="url(#grad1)"/>
    <text x="150" y="127" text-anchor="middle" font-size="16" font-weight="bold" fill="#fff">
      Application Layer
    </text>
    
    <!-- App components -->
    <rect x="70" y="160" width="160" height="60" rx="5" fill="#e3f2fd" stroke="#2196f3" stroke-width="2"/>
    <text x="150" y="185" text-anchor="middle" font-size="14" fill="#1976d2">Your Application</text>
    <text x="150" y="205" text-anchor="middle" font-size="11" fill="#666">Web/API Server</text>
    
    <rect x="70" y="240" width="160" height="60" rx="5" fill="#e8f5e9" stroke="#4caf50" stroke-width="2"/>
    <text x="150" y="265" text-anchor="middle" font-size="14" fill="#2e7d32">PostgreSQL DB</text>
    <text x="150" y="285" text-anchor="middle" font-size="11" fill="#666">Production Data</text>
    
    <rect x="70" y="320" width="160" height="60" rx="5" fill="#fff3e0" stroke="#ff9800" stroke-width="2"/>
    <text x="150" y="345" text-anchor="middle" font-size="14" fill="#e65100">Config Files</text>
    <text x="150" y="365" text-anchor="middle" font-size="11" fill="#666">Nginx, SSL, SSH</text>
  </g>
  
  <!-- Orchestrator -->
  <g filter="url(#shadow)">
    <rect x="350" y="100" width="300" height="380" rx="10" fill="#fff" stroke="#dee2e6" stroke-width="2"/>
    <rect x="350" y="100" width="300" height="40" rx="10" fill="url(#grad1)"/>
    <text x="500" y="127" text-anchor="middle" font-size="16" font-weight="bold" fill="#fff">
      DR Orchestrator
    </text>
    
    <!-- Orchestrator components -->
    <rect x="370" y="160" width="260" height="50" rx="5" fill="#e1f5fe" stroke="#03a9f4" stroke-width="2"/>
    <text x="500" y="190" text-anchor="middle" font-size="14" fill="#01579b">Backup Engine</text>
    
    <rect x="370" y="230" width="260" height="50" rx="5" fill="#fce4ec" stroke="#e91e63" stroke-width="2"/>
    <text x="500" y="260" text-anchor="middle" font-size="14" fill="#880e4f">🔒 AES-256-GCM Encryption</text>
    
    <rect x="370" y="300" width="260" height="50" rx="5" fill="#f3e5f5" stroke="#9c27b0" stroke-width="2"/>
    <text x="500" y="330" text-anchor="middle" font-size="14" fill="#4a148c">📦 Compression (gzip)</text>
    
    <rect x="370" y="370" width="260" height="50" rx="5" fill="#e0f2f1" stroke="#009688" stroke-width="2"/>
    <text x="500" y="400" text-anchor="middle" font-size="14" fill="#004d40">⏰ Scheduling (Cronify)</text>
  </g>
  
  <!-- Oracle Cloud -->
  <g filter="url(#shadow)">
    <rect x="750" y="100" width="200" height="220" rx="10" fill="#fff" stroke="#dee2e6" stroke-width="2"/>
    <rect x="750" y="100" width="200" height="40" rx="10" fill="url(#grad2)"/>
    <text x="850" y="127" text-anchor="middle" font-size="16" font-weight="bold" fill="#fff">
      Oracle Cloud
    </text>
    
    <rect x="770" y="160" width="160" height="60" rx="5" fill="#ffebee" stroke="#f44336" stroke-width="2"/>
    <text x="850" y="185" text-anchor="middle" font-size="14" fill="#c62828">Object Storage</text>
    <text x="850" y="205" text-anchor="middle" font-size="11" fill="#666">20GB Free Tier</text>
    
    <rect x="770" y="240" width="160" height="60" rx="5" fill="#fff8e1" stroke="#ffc107" stroke-width="2"/>
    <text x="850" y="265" text-anchor="middle" font-size="14" fill="#f57f17">50k API Calls</text>
    <text x="850" y="285" text-anchor="middle" font-size="11" fill="#666">per month</text>
  </g>
  
  <!-- Monitoring -->
  <g filter="url(#shadow)">
    <rect x="750" y="340" width="200" height="140" rx="10" fill="#fff" stroke="#dee2e6" stroke-width="2"/>
    <rect x="750" y="340" width="200" height="40" rx="10" fill="#7B42BC"/>
    <text x="850" y="367" text-anchor="middle" font-size="16" font-weight="bold" fill="#fff">
      Monitoring
    </text>
    
    <rect x="770" y="395" width="70" height="30" rx="3" fill="#e8eaf6" stroke="#3f51b5" stroke-width="1"/>
    <text x="805" y="415" text-anchor="middle" font-size="11" fill="#1a237e">Prometheus</text>
    
    <rect x="850" y="395" width="70" height="30" rx="3" fill="#fff3e0" stroke="#ff6f00" stroke-width="1"/>
    <text x="885" y="415" text-anchor="middle" font-size="11" fill="#e65100">Grafana</text>
    
    <text x="850" y="450" text-anchor="middle" font-size="10" fill="#666">Real-time Metrics</text>
  </g>
  
  <!-- Arrows -->
  <defs>
    <marker id="arrowhead" markerWidth="10" markerHeight="7" refX="9" refY="3.5" orient="auto">
      <polygon points="0 0, 10 3.5, 0 7" fill="#00ADD8" />
    </marker>
  </defs>
  
  <!-- App to Orchestrator -->
  <line x1="250" y1="190" x2="350" y2="185" stroke="#00ADD8" stroke-width="3" marker-end="url(#arrowhead)"/>
  <line x1="250" y1="270" x2="350" y2="185" stroke="#00ADD8" stroke-width="3" marker-end="url(#arrowhead)"/>
  <line x1="250" y1="350" x2="350" y2="185" stroke="#00ADD8" stroke-width="3" marker-end="url(#arrowhead)"/>
  
  <!-- Orchestrator to Cloud -->
  <line x1="650" y1="240" x2="750" y2="190" stroke="#F80000" stroke-width="3" marker-end="url(#arrowhead)"/>
  
  <!-- Orchestrator to Monitoring -->
  <line x1="650" y1="300" x2="750" y2="410" stroke="#7B42BC" stroke-width="3" marker-end="url(#arrowhead)"/>
  
  <!-- Labels -->
  <text x="300" y="175" font-size="11" fill="#00ADD8" font-weight="bold">backup</text>
  <text x="700" y="210" font-size="11" fill="#F80000" font-weight="bold">upload</text>
  <text x="700" y="360" font-size="11" fill="#7B42BC" font-weight="bold">metrics</text>
  
  <!-- Footer -->
  <text x="500" y="570" text-anchor="middle" font-size="12" fill="#6c757d">
    💰 $0/month • 🔒 Encrypted • 📊 Monitored • ⚡ Automated
  </text>
</svg>
